<svg xmlns="http://www.w3.org/2000/svg" id="Layer_1" viewBox="0 0 386.2 494.4"><defs><style> .st0 { fill: #fff; } </style></defs><path class="st0" d="M210.6,242.6v58.9h143.6c5.4-18,10.4-37.6,14.7-58.9h-158.3Z"></path><path class="st0" d="M384.5,113.5c1.1-20.2,1.7-41.4,1.7-63.7h-.1c-19.1,14.4-43,23.1-68.9,23.1-48.6,0-89.9-30.3-106.5-73v113.5h173.9,0Z"></path><path class="st0" d="M210.6,430.7v63.7s38.9-10.9,80-63.7h-80Z"></path><path class="st0" d="M314.3,395.6c9.8-16.8,19.3-36.3,28-58.9h-131.6v58.9h103.6Z"></path><path class="st0" d="M210.6,148.6v58.9h164.5c2.8-18.5,5.2-38.1,7-58.9h-171.5Z"></path><path class="st0" d="M140.4,148.6h-35.1v-81.6c-11,3.7-22.8,5.8-35.1,5.9v75.7h-35.2v-80.9C22.4,63.7,10.5,57.6.1,49.7h-.1c0,395.3,175.5,444.7,175.5,444.7V0c-7.3,18.9-19.5,35.3-35.1,47.8v100.8Z"></path></svg>